<?xml version="1.0" standalone="no"?>
<!DOCTYPE svg PUBLIC "-//W3C//DTD SVG 1.1//EN" "http://www.w3.org/Graphics/SVG/1.1/DTD/svg11.dtd" >
<svg>
<metadata>
Created by FontForge 20120731 at Tue Jul  9 19:55:49 2019
 By www
Chalet (C) 2000 House Industries/Brand Design Co. Inc. House Industries is a registered trademark of House Industries/ Brand Design Co., Inc. 
</metadata>
<defs>
<font id="Chalet-LondonNineteenSeventy" horiz-adv-x="200" >
  <font-face 
    font-family="Chalet"
    font-weight="400"
    font-stretch="normal"
    units-per-em="1000"
    panose-1="0 0 5 0 0 0 0 0 0 0"
    ascent="747"
    descent="-253"
    x-height="515"
    cap-height="694"
    bbox="-47 -253 1105 959"
    underline-thickness="8"
    underline-position="-47"
    stemh="82"
    stemv="85"
    unicode-range="U+0020-FB04"
  />
<missing-glyph horiz-adv-x="500" 
 />
    <glyph glyph-name="fi" unicode="fi" horiz-adv-x="510" 
d="M436 593h-84v64c0 23 18 41 42 41s42 -18 42 -41v-64zM352 432h-204v-432h-84v533c0 75 20 132 59 167c36 33 84 46 144 39v-77c-39 3 -67 -4 -87 -23c-26 -24 -32 -71 -32 -106v-20h288v-513h-84v432z" />
    <glyph glyph-name="fl" unicode="fl" horiz-adv-x="563" 
d="M338 188v556h85v-553c0 -91 55 -114 119 -111v-80c-120 -14 -204 57 -204 188zM148 533v-20h117v-81h-117v-432h-84v533c0 75 20 132 59 167c36 33 84 46 144 39v-77c-39 3 -67 -4 -87 -23c-26 -24 -32 -71 -32 -106z" />
    <glyph glyph-name="ff" unicode="ff" horiz-adv-x="559" 
d="M341 432h-193v-432h-84v533c0 75 20 132 59 167c36 33 84 46 144 39v-77c-39 3 -67 -4 -87 -23c-26 -24 -32 -71 -32 -106v-20h193v20c0 75 20 132 59 167c36 33 84 46 144 39v-77c-39 3 -67 -4 -87 -23c-26 -24 -32 -71 -32 -106v-20h117v-81h-117v-432h-84v432z" />
    <glyph glyph-name="ffi" unicode="ffi" horiz-adv-x="777" 
d="M703 593h-84v64c0 23 18 41 42 41s42 -18 42 -41v-64zM619 432h-194v-432h-84v432h-193v-432h-84v533c0 75 20 132 59 167c36 33 84 46 144 39v-77c-39 3 -67 -4 -87 -23c-26 -24 -32 -71 -32 -106v-20h193v20c0 75 20 132 59 167c36 33 84 46 144 39v-77
c-39 3 -67 -4 -87 -23c-26 -24 -32 -71 -32 -106v-20h278v-513h-84v432z" />
    <glyph glyph-name="ffl" unicode="ffl" horiz-adv-x="839" 
d="M615 188v556h85v-553c0 -91 55 -114 119 -111v-80c-120 -14 -204 57 -204 188zM341 432h-193v-432h-84v533c0 75 20 132 59 167c36 33 84 46 144 39v-77c-39 3 -67 -4 -87 -23c-26 -24 -32 -71 -32 -106v-20h193v20c0 75 20 132 59 167c36 33 84 46 144 39v-77
c-39 3 -67 -4 -87 -23c-26 -24 -32 -71 -32 -106v-20h117v-81h-117v-432h-84v432z" />
    <glyph glyph-name=".notdef" horiz-adv-x="500" 
 />
    <glyph glyph-name="space" unicode=" " horiz-adv-x="289" 
 />
    <glyph glyph-name="exclam" unicode="!" horiz-adv-x="271" 
d="M178 694v-517h-85v517h85zM183 99v-99h-95v99h95z" />
    <glyph glyph-name="quotedbl" unicode="&#x22;" horiz-adv-x="317" 
d="M271 694l-14 -249h-52l-14 249h80zM126 694l-14 -249h-52l-14 249h80z" />
    <glyph glyph-name="numbersign" unicode="#" horiz-adv-x="532" 
d="M429 448l-30 -205h85l-11 -79h-85l-19 -127h-81l18 127h-133l-19 -127h-81l19 127h-86l12 79h85l30 205h-85l11 79h86l18 130h82l-19 -130h133l19 130h82l-19 -130h85l-12 -79h-85zM348 448h-134l-29 -205h133z" />
    <glyph glyph-name="dollar" unicode="$" horiz-adv-x="493" 
d="M461 223c0 -54 -23 -101 -66 -133c-32 -25 -75 -40 -125 -44v-58h-57v58c-44 4 -86 20 -118 44c-47 37 -72 89 -72 153h84c0 -61 39 -105 106 -115v192c-93 21 -176 63 -176 163c0 92 69 157 176 167v61h57v-62c110 -11 175 -85 175 -183h-85c0 57 -32 93 -90 102v-175
c121 -27 191 -66 191 -170zM213 406v162c-58 -8 -92 -39 -92 -83c0 -34 22 -59 92 -79zM376 221c0 36 -12 64 -106 87v-180c74 8 106 45 106 93z" />
    <glyph glyph-name="percent" unicode="%" horiz-adv-x="810" 
d="M193 694c92 0 168 -75 168 -168s-76 -168 -168 -168c-93 0 -169 75 -169 168s76 168 169 168zM174 0l381 694h81l-381 -694h-81zM617 0c-93 0 -168 75 -168 168s75 169 168 169s168 -76 168 -169s-75 -168 -168 -168zM193 429c51 0 92 43 92 97c0 53 -41 97 -92 97
s-93 -44 -93 -97c0 -54 42 -97 93 -97zM617 265c-51 0 -93 -43 -93 -97c0 -53 42 -97 93 -97s93 44 93 97c0 54 -42 97 -93 97z" />
    <glyph glyph-name="ampersand" unicode="&#x26;" horiz-adv-x="648" 
d="M537 0l-47 58c-49 -44 -115 -70 -188 -70c-140 0 -254 110 -254 244c0 52 19 102 54 146c20 24 44 45 72 64c-21 28 -40 65 -40 113c0 87 71 156 164 156c90 0 156 -65 156 -155l-84 -1c0 43 -26 78 -72 78c-40 0 -79 -28 -79 -75c0 -31 13 -55 34 -80l227 -277
c4 14 5 28 5 42v84h84v-88c0 -41 -10 -79 -27 -113l104 -126h-109zM437 122l-212 258c-59 -40 -92 -94 -92 -148c0 -88 74 -164 170 -164c54 0 101 21 134 54z" />
    <glyph glyph-name="quoteright" unicode="&#x2019;" horiz-adv-x="179" 
d="M138 694v-126c0 -68 -47 -101 -94 -106v44c32 5 50 28 50 62v23h-56v103h100z" />
    <glyph glyph-name="parenleft" unicode="(" horiz-adv-x="314" 
d="M227 790h75c-94 -124 -152 -282 -152 -453s58 -330 152 -453h-75c-101 104 -169 280 -169 453c0 172 68 348 169 453z" />
    <glyph glyph-name="parenright" unicode=")" horiz-adv-x="314" 
d="M87 790c101 -105 169 -281 169 -453c0 -173 -68 -349 -169 -453h-74c94 123 151 282 151 453s-57 329 -151 453h74z" />
    <glyph glyph-name="asterisk" unicode="*" horiz-adv-x="347" 
d="M321 530l-101 1l53 -86l-51 -29l-48 89l-49 -89l-50 29l52 86l-101 -2v58l101 -2l-52 87l50 28l48 -88l49 88l51 -28l-53 -87l101 2v-57z" />
    <glyph glyph-name="plus" unicode="+" horiz-adv-x="509" 
d="M468 235h-171v-172h-84v172h-171v82h171v172h84v-172h171v-82z" />
    <glyph glyph-name="comma" unicode="," 
d="M50 103h100v-126c0 -68 -47 -101 -93 -105v43c32 5 50 28 50 62v23h-57v103z" />
    <glyph glyph-name="hyphen" unicode="-" horiz-adv-x="359" 
d="M315 235h-271v82h271v-82z" />
    <glyph glyph-name="hyphen" unicode="&#xad;" horiz-adv-x="359" 
d="M315 235h-271v82h271v-82z" />
    <glyph glyph-name="period" unicode="." 
d="M150 103v-103h-100v103h100z" />
    <glyph glyph-name="slash" unicode="/" horiz-adv-x="274" 
d="M291 744l-211 -744h-84l210 744h85z" />
    <glyph glyph-name="zero" unicode="0" horiz-adv-x="768" 
d="M384 711c193 0 344 -151 344 -361c0 -206 -154 -362 -344 -362s-344 155 -344 362c0 206 154 361 344 361zM384 69c143 0 260 126 260 281c0 158 -114 280 -260 280c-143 0 -260 -126 -260 -280c0 -155 117 -281 260 -281z" />
    <glyph glyph-name="one" unicode="1" horiz-adv-x="322" 
d="M191 694v-694h-85v613h-81v81h166z" />
    <glyph glyph-name="two" unicode="2" horiz-adv-x="511" 
d="M201 82h269v-82h-457l270 293c92 99 108 140 108 203c0 53 -36 131 -138 131c-96 0 -145 -70 -145 -160h-85c0 136 87 244 230 244c138 0 223 -104 223 -215c0 -49 -9 -88 -30 -128c-19 -37 -50 -77 -101 -133z" />
    <glyph glyph-name="three" unicode="3" horiz-adv-x="557" 
d="M524 238c0 -147 -107 -250 -252 -250c-119 0 -240 65 -257 206h84c16 -74 79 -125 174 -125c100 0 167 71 167 169c0 50 -16 93 -51 123c-43 37 -103 53 -199 41l145 211h-273v81h438l-158 -222c108 -24 182 -113 182 -234z" />
    <glyph glyph-name="four" unicode="4" horiz-adv-x="571" 
d="M544 153h-71v-153h-85v153h-392l391 541h86v-459h71v-82zM388 235v322l-231 -322h231z" />
    <glyph glyph-name="five" unicode="5" horiz-adv-x="563" 
d="M531 237c0 -72 -26 -136 -73 -181c-46 -44 -109 -68 -178 -68c-131 0 -239 79 -255 205h85c14 -70 79 -124 170 -124c99 0 166 69 166 168c0 93 -64 168 -160 168c-61 0 -127 -29 -161 -91h-82l84 380h356v-81h-288l-39 -168c35 25 80 40 134 40c144 0 241 -113 241 -248
z" />
    <glyph glyph-name="six" unicode="6" horiz-adv-x="561" 
d="M528 234c0 -136 -110 -246 -246 -246s-247 110 -247 246c0 42 14 88 43 141l175 319h96l-124 -224c19 6 40 10 63 10c129 0 240 -110 240 -246zM443 234c0 91 -72 165 -161 165s-162 -74 -162 -165s73 -165 162 -165s161 74 161 165z" />
    <glyph glyph-name="seven" unicode="7" horiz-adv-x="534" 
d="M383 613h-362v81h492l-317 -694h-93z" />
    <glyph glyph-name="eight" unicode="8" horiz-adv-x="554" 
d="M518 223c0 -130 -108 -235 -241 -235s-242 105 -242 235c0 90 53 168 130 207c-35 28 -57 70 -57 118c0 90 76 163 169 163s169 -73 169 -163c0 -48 -22 -90 -57 -118c77 -40 129 -117 129 -207zM191 545c0 -47 39 -86 86 -86c48 0 86 39 86 86s-38 86 -86 86
c-47 0 -86 -39 -86 -86zM434 226c0 87 -71 157 -157 157c-87 0 -157 -70 -157 -157c0 -86 70 -156 157 -156c86 0 157 70 157 156z" />
    <glyph glyph-name="nine" unicode="9" horiz-adv-x="561" 
d="M526 465c0 -42 -13 -87 -43 -141l-177 -324h-96l127 229c-20 -6 -41 -9 -64 -9c-129 0 -240 109 -240 245s111 246 247 246c135 0 246 -110 246 -246zM441 465c0 91 -72 165 -161 165c-90 0 -162 -74 -162 -165s72 -165 162 -165c89 0 161 74 161 165z" />
    <glyph glyph-name="colon" unicode=":" horiz-adv-x="227" 
d="M163 497v-103h-100v103h100zM163 103v-103h-100v103h100z" />
    <glyph glyph-name="semicolon" unicode=";" horiz-adv-x="227" 
d="M163 497v-103h-100v103h100zM63 103h100v-126c0 -68 -46 -101 -93 -105v43c32 5 50 28 50 62v23h-57v103z" />
    <glyph glyph-name="less" unicode="&#x3c;" horiz-adv-x="450" 
d="M114 275l304 -131v-89l-387 175v92l387 174v-89l-304 -131v-1z" />
    <glyph glyph-name="equal" unicode="=" horiz-adv-x="484" 
d="M440 333h-396v82h396v-82zM440 219v-81h-396v81h396z" />
    <glyph glyph-name="greater" unicode="&#x3e;" horiz-adv-x="454" 
d="M340 275c0 1 -305 132 -305 132v89l388 -174v-92l-388 -175v89z" />
    <glyph glyph-name="question" unicode="?" horiz-adv-x="522" 
d="M476 517c0 -97 -60 -142 -109 -178c-52 -38 -85 -63 -85 -135v-27h-82v27c0 109 55 149 117 196c47 37 75 62 75 114c0 72 -45 116 -135 116c-87 0 -141 -50 -141 -124h-85c0 110 86 205 226 205c139 0 219 -86 219 -194zM289 99v-99h-96v99h96z" />
    <glyph glyph-name="at" unicode="@" horiz-adv-x="756" 
d="M494 289c-11 -38 7 -57 36 -57c58 0 114 67 114 170c0 127 -89 238 -251 238c-158 0 -280 -139 -280 -295c0 -166 112 -287 279 -287c88 0 168 36 220 91h92c-64 -101 -178 -161 -312 -161c-206 0 -354 146 -354 357c0 210 166 366 355 366c193 0 326 -128 326 -312
c0 -147 -103 -236 -188 -236c-54 0 -86 28 -98 65c-33 -40 -80 -65 -125 -65c-83 0 -143 82 -109 201c31 104 120 180 199 180c41 0 73 -20 88 -53l12 40h72c-17 -51 -76 -242 -76 -242zM439 360c14 53 6 113 -44 113c-52 0 -109 -61 -126 -128c-16 -69 10 -110 54 -110
c60 0 100 63 116 125z" />
    <glyph glyph-name="A" unicode="A" horiz-adv-x="636" 
d="M563 466v-466h-85v258h-320v-258h-85v466c0 138 104 245 245 245c142 0 245 -107 245 -245zM478 340v126c0 90 -66 164 -160 164c-91 0 -160 -74 -160 -164v-126h320z" />
    <glyph glyph-name="B" unicode="B" horiz-adv-x="582" 
d="M544 202c0 -109 -83 -202 -207 -202h-264v497c0 118 95 214 218 214c127 0 217 -84 217 -196c0 -59 -27 -110 -75 -141c73 -29 111 -94 111 -172zM158 497v-93h148c62 0 118 36 118 111c0 65 -53 115 -133 115c-76 0 -133 -62 -133 -133zM460 202c0 68 -43 120 -119 120
h-183v-240h183c69 0 119 52 119 120z" />
    <glyph glyph-name="C" unicode="C" horiz-adv-x="727" 
d="M702 220c-47 -141 -169 -232 -318 -232c-190 0 -344 162 -344 362c0 199 154 361 344 361c158 0 274 -94 318 -231h-89c-38 87 -116 150 -229 150c-143 0 -260 -127 -260 -280s117 -280 260 -280c102 0 187 58 229 150h89z" />
    <glyph glyph-name="D" unicode="D" horiz-adv-x="652" 
d="M81 0v694h218c192 0 314 -131 314 -346s-122 -348 -314 -348h-218zM299 613h-134v-531h134c128 0 227 80 227 266c0 190 -101 265 -227 265z" />
    <glyph glyph-name="E" unicode="E" horiz-adv-x="571" 
d="M150 486v-99h325v-79h-325v-100c0 -81 43 -126 123 -126h246v-82h-246c-126 0 -208 77 -208 208v278c0 132 82 208 208 208h246v-81h-246c-80 0 -123 -45 -123 -127z" />
    <glyph glyph-name="F" unicode="F" horiz-adv-x="516" 
d="M158 486v-100h284v-79h-284v-307h-85v486c0 132 82 208 208 208h204v-81h-204c-80 0 -123 -45 -123 -127z" />
    <glyph glyph-name="G" unicode="G" horiz-adv-x="760" 
d="M390 378h332v-36c0 -214 -137 -354 -337 -354c-191 0 -345 162 -345 362c0 199 154 361 345 361c138 0 267 -78 321 -231h-90c-43 92 -128 149 -231 149c-144 0 -261 -127 -261 -279c0 -153 117 -280 261 -280c145 0 237 97 250 226h-245v82z" />
    <glyph glyph-name="H" unicode="H" horiz-adv-x="665" 
d="M584 694v-694h-84v323h-334v-323h-85v694h85v-289h334v289h84z" />
    <glyph glyph-name="I" unicode="I" horiz-adv-x="255" 
d="M170 694v-694h-85v694h85z" />
    <glyph glyph-name="J" unicode="J" horiz-adv-x="451" 
d="M170 82c80 0 124 44 124 126v486h84v-486c0 -131 -81 -208 -208 -208h-147v82h147z" />
    <glyph glyph-name="K" unicode="K" horiz-adv-x="643" 
d="M508 347c43 -29 67 -77 67 -145v-202h-85v202c0 45 -12 104 -117 104h-216v-306h-85v694h85v-306h216c105 0 117 60 117 104v202h85v-202c0 -67 -24 -116 -67 -145z" />
    <glyph glyph-name="L" unicode="L" horiz-adv-x="506" 
d="M281 82h200v-82h-200c-126 0 -208 77 -208 208v486h85v-486c0 -82 43 -126 123 -126z" />
    <glyph glyph-name="M" unicode="M" horiz-adv-x="996" 
d="M923 478v-478h-84v478c0 82 -64 152 -149 152c-86 0 -149 -70 -149 -152v-478h-85v478c0 82 -63 152 -149 152c-85 0 -149 -70 -149 -152v-478h-85v478c0 129 102 233 234 233c84 0 153 -42 191 -105c39 63 108 105 192 105c132 0 233 -104 233 -233z" />
    <glyph glyph-name="N" unicode="N" horiz-adv-x="636" 
d="M318 711c138 0 245 -105 245 -243v-468h-85v468c0 92 -72 162 -160 162s-160 -70 -160 -162v-468h-85v468c0 138 107 243 245 243z" />
    <glyph glyph-name="O" unicode="O" horiz-adv-x="768" 
d="M384 711c193 0 344 -155 344 -361c0 -202 -154 -362 -344 -362s-344 159 -344 362c0 202 154 361 344 361zM384 70c143 0 260 123 260 280c0 160 -114 280 -260 280c-143 0 -260 -123 -260 -280c0 -158 117 -280 260 -280z" />
    <glyph glyph-name="P" unicode="P" horiz-adv-x="598" 
d="M558 486c0 -138 -92 -228 -238 -228h-162v-258h-85v466c0 142 102 245 243 245c133 0 242 -100 242 -225zM473 486c0 79 -65 144 -157 144c-90 0 -158 -64 -158 -164v-125h161c101 0 154 59 154 145z" />
    <glyph glyph-name="Q" unicode="Q" horiz-adv-x="768" 
d="M426 -10v-91h-84v91c-170 23 -302 173 -302 360c0 202 154 361 344 361c193 0 344 -155 344 -361c0 -187 -132 -338 -302 -360zM644 350c0 160 -114 280 -260 280c-143 0 -260 -123 -260 -280c0 -142 94 -255 218 -277v83h84v-83c123 22 218 135 218 277z" />
    <glyph glyph-name="R" unicode="R" horiz-adv-x="613" 
d="M475 312c44 -24 69 -65 69 -120v-192h-85v186c0 40 -24 72 -75 72h-226v-258h-85v466c0 142 102 245 242 245c134 0 243 -100 243 -225c0 -79 -30 -138 -83 -174zM321 340c102 0 152 60 152 146c0 79 -65 144 -158 144c-90 0 -157 -65 -157 -164v-126h163z" />
    <glyph glyph-name="S" unicode="S" horiz-adv-x="533" 
d="M527 694v-83c-68 -1 -114 -13 -144 -40v0c-45 -39 -72 -90 -72 -223c0 -146 -29 -227 -103 -289c-60 -51 -138 -61 -202 -60v84c68 0 114 13 147 40c45 38 73 88 73 225c0 135 28 215 86 272c54 54 123 76 215 74z" />
    <glyph glyph-name="T" unicode="T" horiz-adv-x="555" 
d="M538 613h-218v-613h-85v613h-218v81h521v-81z" />
    <glyph glyph-name="U" unicode="U" horiz-adv-x="670" 
d="M153 249c0 -103 66 -179 182 -179c117 0 181 76 181 179v445h85v-445c0 -154 -108 -261 -266 -261c-159 0 -266 107 -266 261v445h84v-445z" />
    <glyph glyph-name="V" unicode="V" horiz-adv-x="610" 
d="M606 694l-255 -694h-91l-256 694h92l209 -589l210 589h91z" />
    <glyph glyph-name="W" unicode="W" horiz-adv-x="988" 
d="M919 694v-473c0 -128 -101 -233 -234 -233c-83 0 -152 42 -191 106c-38 -64 -107 -106 -191 -106c-132 0 -234 105 -234 233v473h85v-473c0 -82 63 -151 149 -151s149 69 149 151v473h85v-473c0 -82 63 -151 148 -151c86 0 150 69 150 151v473h84z" />
    <glyph glyph-name="X" unicode="X" horiz-adv-x="623" 
d="M469 694h84v-143c0 -86 -39 -160 -103 -204c64 -43 103 -118 103 -204v-143h-84v143c0 90 -59 163 -157 163c-95 0 -157 -73 -157 -163v-143h-85v143c0 86 39 161 103 204c-64 44 -103 118 -103 204v143h85v-143c0 -90 62 -163 157 -163c98 0 157 73 157 163v143z" />
    <glyph glyph-name="Y" unicode="Y" horiz-adv-x="587" 
d="M535 694v-191c0 -123 -80 -223 -198 -242v-261h-85v260c-119 19 -200 119 -200 243v191h84v-191c0 -90 63 -164 158 -164c97 0 156 74 156 164v191h85z" />
    <glyph glyph-name="Z" unicode="Z" horiz-adv-x="530" 
d="M503 82v-82h-476v78l361 535h-348v81h452v-77l-361 -535h372z" />
    <glyph glyph-name="bracketleft" unicode="[" horiz-adv-x="310" 
d="M162 711v-723h127v-73h-212v870h212v-74h-127z" />
    <glyph glyph-name="backslash" unicode="\" horiz-adv-x="274" 
d="M-17 744h85l210 -744h-84z" />
    <glyph glyph-name="bracketright" unicode="]" horiz-adv-x="310" 
d="M148 711h-127v74h212v-870h-212v73h127v723z" />
    <glyph glyph-name="asciicircum" unicode="^" horiz-adv-x="513" 
d="M302 694l178 -436h-91l-132 341l-133 -341h-91l179 436h90z" />
    <glyph glyph-name="underscore" unicode="_" horiz-adv-x="881" 
d="M881 -69v-82h-881v82h881z" />
    <glyph glyph-name="quoteleft" unicode="&#x2018;" horiz-adv-x="183" 
d="M142 573v-103h-100v126c0 68 46 102 93 106v-44c-32 -5 -50 -28 -50 -62v-23h57z" />
    <glyph glyph-name="a" unicode="a" horiz-adv-x="608" 
d="M552 257v-257h-82v80c-40 -56 -105 -93 -178 -93c-142 0 -257 116 -257 270c0 155 116 271 259 271c146 0 258 -119 258 -271zM468 257c0 107 -80 193 -174 193c-96 0 -174 -85 -174 -193s78 -191 174 -191c95 0 174 85 174 191z" />
    <glyph glyph-name="b" unicode="b" horiz-adv-x="601" 
d="M566 259c0 -155 -116 -271 -258 -271c-146 0 -259 118 -259 271v485h82v-303c42 53 107 87 178 87c143 0 257 -115 257 -269zM481 259c0 107 -78 191 -173 191s-174 -85 -174 -191c0 -107 80 -193 174 -193c95 0 173 84 173 193z" />
    <glyph glyph-name="c" unicode="c" horiz-adv-x="563" 
d="M533 160c-34 -104 -125 -172 -240 -172c-142 0 -258 120 -258 269s116 271 258 271c115 0 205 -68 240 -172h-91c-29 56 -82 91 -149 91c-95 0 -173 -86 -173 -190s78 -188 173 -188c68 0 121 35 149 91h91z" />
    <glyph glyph-name="d" unicode="d" horiz-adv-x="601" 
d="M552 744v-485c0 -153 -112 -271 -258 -271c-143 0 -259 116 -259 271c0 154 115 269 257 269c72 0 136 -34 178 -87v303h82zM468 259c0 106 -79 191 -174 191c-96 0 -174 -84 -174 -191c0 -109 78 -193 174 -193c94 0 174 86 174 193z" />
    <glyph glyph-name="e" unicode="e" horiz-adv-x="581" 
d="M456 160h88c-40 -110 -126 -172 -245 -172c-148 0 -264 118 -264 269c0 149 116 271 259 271c112 0 221 -78 251 -212l-395 -167c33 -52 90 -81 149 -81c73 0 124 32 157 92zM120 258c0 -13 1 -24 3 -35l318 134c-32 56 -89 91 -147 91c-82 0 -174 -72 -174 -190z" />
    <glyph glyph-name="f" unicode="f" horiz-adv-x="282" 
d="M148 533v-20h117v-81h-117v-432h-84v533c0 75 20 132 59 167c36 33 84 46 144 39v-77c-39 3 -67 -4 -87 -23c-26 -24 -32 -71 -32 -106z" />
    <glyph glyph-name="g" unicode="g" horiz-adv-x="610" 
d="M552 257v-233c0 -165 -106 -277 -265 -277c-121 0 -216 65 -243 170h90c34 -77 116 -88 153 -88c133 0 181 102 181 195v49c-40 -53 -102 -86 -176 -86c-142 0 -257 116 -257 270c0 155 116 271 259 271c146 0 258 -119 258 -271zM468 257c0 107 -80 193 -174 193
c-96 0 -174 -85 -174 -193s78 -191 174 -191c95 0 174 85 174 191z" />
    <glyph glyph-name="h" unicode="h" horiz-adv-x="568" 
d="M501 310v-310h-85v313c0 80 -42 137 -126 137c-77 0 -135 -58 -135 -135v-315h-84v744h84v-281c35 40 87 65 147 65c127 0 199 -90 199 -218z" />
    <glyph glyph-name="i" unicode="i" horiz-adv-x="233" 
d="M159 593h-85v64c0 23 19 41 42 41c24 0 43 -18 43 -41v-64zM159 515v-515h-85v515h85z" />
    <glyph glyph-name="j" unicode="j" horiz-adv-x="223" 
d="M154 593h-85v64c0 23 19 41 42 41c24 0 43 -18 43 -41v-64zM154 515v-588c0 -92 -46 -159 -157 -151v79c46 -2 72 18 72 70v590h85z" />
    <glyph glyph-name="k" unicode="k" horiz-adv-x="556" 
d="M404 263c60 -33 91 -93 91 -181v-82h-84v88c0 95 -51 130 -135 130h-121v-218h-84v744h84v-447h121c83 0 135 55 135 132v86h84v-80c0 -74 -33 -136 -91 -172z" />
    <glyph glyph-name="l" unicode="l" horiz-adv-x="285" 
d="M61 188v556h84v-553c0 -91 56 -114 120 -111v-80c-121 -14 -204 57 -204 188z" />
    <glyph glyph-name="m" unicode="m" horiz-adv-x="837" 
d="M770 330v-330h-85v333c0 67 -44 117 -112 117s-112 -50 -112 -117v-333h-85v333c0 67 -44 117 -112 117s-112 -50 -112 -117v-333h-85v330c0 112 81 198 197 198c70 0 124 -33 154 -85c31 52 85 85 155 85c117 0 197 -86 197 -198z" />
    <glyph glyph-name="n" unicode="n" horiz-adv-x="561" 
d="M150 316v-316h-84v313c0 130 92 215 215 215s214 -85 214 -215v-313h-84v316c0 77 -51 133 -130 133c-80 0 -131 -56 -131 -133z" />
    <glyph glyph-name="o" unicode="o" horiz-adv-x="589" 
d="M294 528c147 0 259 -122 259 -272c0 -148 -112 -269 -259 -269c-146 0 -259 121 -259 269c0 150 113 272 259 272zM294 69c96 0 174 84 174 187c0 105 -78 191 -174 191c-95 0 -173 -86 -173 -191c0 -103 78 -187 173 -187z" />
    <glyph glyph-name="p" unicode="p" horiz-adv-x="601" 
d="M566 257c0 -154 -114 -270 -257 -270c-71 0 -136 35 -178 87v-303h-82v486c0 152 113 271 259 271c142 0 258 -116 258 -271zM481 257c0 108 -78 192 -173 192c-94 0 -174 -85 -174 -192s79 -192 174 -192s173 84 173 192z" />
    <glyph glyph-name="q" unicode="q" horiz-adv-x="601" 
d="M552 257v-486h-82v303c-42 -52 -106 -87 -178 -87c-142 0 -257 116 -257 270c0 155 116 271 259 271c146 0 258 -119 258 -271zM468 257c0 107 -80 192 -174 192c-96 0 -174 -84 -174 -192s78 -192 174 -192c95 0 174 85 174 192z" />
    <glyph glyph-name="r" unicode="r" horiz-adv-x="334" 
d="M66 306c0 156 111 235 246 219v-79c-99 9 -162 -39 -162 -138v-308h-84v306z" />
    <glyph glyph-name="s" unicode="s" horiz-adv-x="398" 
d="M383 515v-83c-40 1 -76 -4 -103 -29c-23 -23 -39 -56 -39 -145c0 -102 -18 -161 -64 -205c-40 -38 -98 -57 -162 -53v84c45 -2 82 10 104 31s38 54 38 143c0 102 18 162 64 206c39 37 95 55 162 51z" />
    <glyph glyph-name="t" unicode="t" horiz-adv-x="287" 
d="M264 78v-78c-120 -14 -203 57 -203 188v437h84v-110h117v-81h-117v-246c0 -91 55 -114 119 -110z" />
    <glyph glyph-name="u" unicode="u" horiz-adv-x="563" 
d="M412 203v312h85v-312c0 -130 -94 -215 -215 -215s-215 85 -215 215v312h84v-312c0 -77 51 -133 131 -133c79 0 130 56 130 133z" />
    <glyph glyph-name="v" unicode="v" horiz-adv-x="485" 
d="M197 0l-187 515h90l142 -402h1l142 402h90l-187 -515h-91z" />
    <glyph glyph-name="w" unicode="w" horiz-adv-x="837" 
d="M770 515v-330c0 -112 -80 -197 -197 -197c-70 0 -124 32 -155 85c-30 -53 -84 -85 -154 -85c-116 0 -197 85 -197 197v330h85v-330c0 -66 44 -115 112 -115s112 49 112 115v330h85v-330c0 -66 44 -115 112 -115s112 49 112 115v330h85z" />
    <glyph glyph-name="x" unicode="x" horiz-adv-x="550" 
d="M395 258c55 -34 88 -94 88 -174v-84h-84v90c0 74 -44 128 -124 128s-124 -54 -124 -128v-90h-84v84c0 80 33 140 88 174c-55 34 -88 93 -88 174v83h84v-90c0 -74 44 -128 124 -128s124 54 124 128v90h84v-83c0 -81 -33 -140 -88 -174z" />
    <glyph glyph-name="y" unicode="y" horiz-adv-x="566" 
d="M412 515h85v-553c0 -135 -94 -215 -215 -215c-108 0 -192 64 -212 170h86c18 -55 60 -88 126 -88c79 0 130 54 130 133v77c-31 -33 -74 -51 -130 -51c-121 0 -215 85 -215 215v312h84v-312c0 -77 51 -133 131 -133c79 0 130 56 130 133v312z" />
    <glyph glyph-name="z" unicode="z" horiz-adv-x="470" 
d="M443 82v-82h-416v71l296 363h-288v81h399v-77l-293 -356h302z" />
    <glyph glyph-name="braceleft" unicode="{" horiz-adv-x="308" 
d="M273 780v-71c-55 3 -77 -26 -77 -75v-165c0 -66 -24 -104 -70 -122c46 -17 70 -55 70 -122v-162c0 -50 22 -78 77 -75v-71c-88 -7 -158 30 -158 146v165c0 68 -40 84 -86 84v70c46 0 86 16 86 84v168c0 116 70 153 158 146z" />
    <glyph glyph-name="bar" unicode="|" horiz-adv-x="222" 
d="M153 744v-744h-84v744h84z" />
    <glyph glyph-name="braceright" unicode="}" horiz-adv-x="308" 
d="M35 780c88 7 158 -30 158 -146v-168c0 -68 40 -84 86 -84v-70c-46 0 -86 -16 -86 -84v-165c0 -116 -70 -153 -158 -146v71c55 -3 77 25 77 75v162c0 67 24 105 70 122c-46 18 -70 56 -70 122v165c0 49 -22 78 -77 75v71z" />
    <glyph glyph-name="asciitilde" unicode="~" horiz-adv-x="379" 
d="M254 593c-54 0 -101 38 -141 38c-24 0 -40 -19 -42 -43h-48c5 54 37 105 102 105c57 0 101 -39 141 -39c24 0 40 20 42 44h48c-4 -54 -36 -105 -102 -105z" />
    <glyph glyph-name="exclamdown" unicode="&#xa1;" horiz-adv-x="271" 
d="M88 595v99h95v-99h-95zM93 0v517h85v-517h-85z" />
    <glyph glyph-name="cent" unicode="&#xa2;" horiz-adv-x="547" 
d="M518 168c-34 -101 -122 -168 -234 -168c-21 0 -40 3 -59 7l-35 -117h-60l42 138c-83 42 -141 132 -141 235c0 146 114 265 253 265c13 0 26 -1 39 -3l32 106h60l-37 -121c66 -26 115 -80 140 -150h-92c-17 32 -42 56 -72 71l-105 -346c11 -2 23 -4 35 -4
c62 0 115 32 143 87h91zM196 108l103 338c-5 0 -10 1 -15 1c-93 0 -168 -83 -168 -184c0 -66 32 -123 80 -155z" />
    <glyph glyph-name="sterling" unicode="&#xa3;" horiz-adv-x="530" 
d="M155 82h342v-82h-464v79c49 0 72 25 72 89v137h-72v81h72v100c0 132 83 208 208 208h157v-81h-157c-80 0 -123 -45 -123 -127v-100h201v-81h-201v-115c0 -53 -12 -87 -35 -108z" />
    <glyph glyph-name="fraction" unicode="&#x2044;" 
d="M150 383v-104h-100v104h100z" />
    <glyph glyph-name="fraction" unicode="&#x2215;" 
d="M150 383v-104h-100v104h100z" />
    <glyph glyph-name="yen" unicode="&#xa5;" horiz-adv-x="603" 
d="M453 465h106v-57h-139l-64 -110h187v-57h-199v-241h-85v241h-200v57h188l-64 110h-139v57h106l-133 229h98l186 -329l187 329h98z" />
    <glyph glyph-name="florin" unicode="&#x192;" horiz-adv-x="453" 
d="M435 660v-85c-59 23 -116 10 -132 -65l-12 -52h77v-61h-90l-48 -224c-26 -127 -113 -167 -215 -139v85c58 -22 115 -10 132 66c0 0 24 116 45 212h-74v61h87c8 37 14 64 14 64c26 126 114 166 216 138z" />
    <glyph glyph-name="section" unicode="&#xa7;" horiz-adv-x="535" 
d="M433 207c12 -19 17 -41 17 -68c0 -93 -75 -151 -184 -151s-186 67 -186 167h83c0 -57 43 -87 103 -87c59 0 99 26 99 71c0 31 -18 54 -124 76c-86 18 -199 42 -199 164c0 48 24 88 62 114c-12 18 -19 41 -19 67c0 90 75 151 185 151c107 0 186 -61 186 -168h-83
c0 54 -35 88 -103 88c-54 0 -100 -22 -100 -71c0 -36 21 -55 126 -75c128 -25 198 -61 198 -164c0 -51 -25 -90 -61 -114zM370 260c24 10 39 33 39 61c0 41 -19 64 -131 84c-43 8 -82 18 -113 35c-25 -12 -38 -32 -38 -60c0 -45 22 -66 135 -88c43 -9 79 -19 108 -32z" />
    <glyph glyph-name="currency" unicode="&#xa4;" horiz-adv-x="688" 
d="M657 157c-52 -94 -147 -157 -258 -157c-135 0 -249 92 -290 218h-74v57h61c-2 15 -3 30 -3 46c0 9 0 18 1 27h-59v57h68c36 136 155 237 296 237c96 0 186 -42 245 -114l-39 -81c-41 67 -120 115 -206 115c-95 0 -176 -67 -207 -157h393l-28 -57h-378
c-1 -9 -1 -18 -1 -27c0 -16 1 -31 4 -46h340l-28 -57h-295c36 -80 112 -138 200 -138c63 0 120 30 160 77h98z" />
    <glyph glyph-name="quotesingle" unicode="'" horiz-adv-x="172" 
d="M126 694l-14 -249h-52l-14 249h80z" />
    <glyph glyph-name="quotedblleft" unicode="&#x201c;" horiz-adv-x="340" 
d="M298 573v-103h-100v126c0 68 47 102 93 106v-44c-32 -5 -49 -28 -49 -62v-23h56zM85 573h57v-103h-100v126c0 68 47 102 93 106v-44c-32 -5 -50 -28 -50 -62v-23z" />
    <glyph glyph-name="guillemotleft" unicode="&#xab;" horiz-adv-x="423" 
d="M393 380l-100 -80l100 -82v-88l-158 136v67l158 136v-89zM23 333l158 136v-89l-100 -80l100 -82v-88l-158 136v67z" />
    <glyph glyph-name="guilsinglleft" unicode="&#x2039;" horiz-adv-x="210" 
d="M181 380l-100 -80l100 -82v-88l-158 136v67l158 136v-89z" />
    <glyph glyph-name="guilsinglright" unicode="&#x203a;" horiz-adv-x="210" 
d="M188 333v-67l-159 -136v88l100 82l-100 80v89z" />
    <glyph glyph-name="endash" unicode="&#x2013;" horiz-adv-x="631" 
d="M587 235h-543v82h543v-82z" />
    <glyph glyph-name="dagger" unicode="&#x2020;" horiz-adv-x="370" 
d="M223 494v-94h105v-73h-105v-127h-76v127h-105v73h105v94h-105v73h105v127h76v-127h105v-73h-105z" />
    <glyph glyph-name="daggerdbl" unicode="&#x2021;" horiz-adv-x="370" 
d="M223 494v-94h105v-73h-105v-127h-76v127h-105v73h105v94h-105v73h105v127h76v-127h105v-73h-105z" />
    <glyph glyph-name="periodcentered" unicode="&#xb7;" 
d="M150 383v-104h-100v104h100z" />
    <glyph glyph-name="periodcentered" unicode="&#x2219;" 
d="M150 383v-104h-100v104h100z" />
    <glyph glyph-name="paragraph" unicode="&#xb6;" horiz-adv-x="550" 
d="M488 694v-694h-85v613h-88v-613h-84v275c-131 7 -205 92 -205 209c0 123 80 210 223 210h239z" />
    <glyph glyph-name="bullet" unicode="&#x2022;" horiz-adv-x="313" 
d="M157 258c-60 0 -107 47 -107 107c0 58 47 106 107 106c58 0 106 -48 106 -106c0 -60 -48 -107 -106 -107z" />
    <glyph glyph-name="quotesinglbase" unicode="&#x201a;" horiz-adv-x="179" 
d="M138 103v-126c0 -68 -47 -101 -94 -106v44c32 5 50 28 50 62v23h-56v103h100z" />
    <glyph glyph-name="quotedblbase" unicode="&#x201e;" horiz-adv-x="335" 
d="M294 103v-126c0 -68 -47 -101 -94 -106v44c33 5 50 28 50 62v23h-57v103h101zM38 103h100v-126c0 -68 -47 -101 -94 -106v44c32 5 50 28 50 62v23h-56v103z" />
    <glyph glyph-name="quotedblright" unicode="&#x201d;" horiz-adv-x="335" 
d="M294 694v-126c0 -68 -47 -101 -94 -106v44c33 5 50 28 50 62v23h-57v103h101zM38 694h100v-126c0 -68 -47 -101 -94 -106v44c32 5 50 28 50 62v23h-56v103z" />
    <glyph glyph-name="guillemotright" unicode="&#xbb;" horiz-adv-x="423" 
d="M400 333v-67l-159 -136v88l100 82l-100 80v89zM29 469l159 -136v-67l-159 -136v88l100 82l-100 80v89z" />
    <glyph glyph-name="ellipsis" unicode="&#x2026;" horiz-adv-x="863" 
d="M813 88v-88h-85v88h85zM473 88v-88h-84v88h84zM135 88v-88h-85v88h85z" />
    <glyph glyph-name="questiondown" unicode="&#xbf;" horiz-adv-x="522" 
d="M233 595v99h96v-99h-96zM46 177c0 98 60 143 109 178c52 38 85 63 85 135v27h83v-27c0 -109 -56 -149 -118 -196c-47 -36 -75 -61 -75 -114c0 -72 45 -116 135 -116c87 0 141 51 141 124h85c0 -110 -86 -205 -226 -205c-139 0 -219 86 -219 194z" />
    <glyph glyph-name="grave" unicode="`" horiz-adv-x="417" 
d="M101 735h102l87 -132h-66z" />
    <glyph glyph-name="acute" unicode="&#xb4;" horiz-adv-x="417" 
d="M349 735l-119 -132h-70l87 132h102z" />
    <glyph glyph-name="circumflex" unicode="&#x2c6;" horiz-adv-x="417" 
d="M208 684l-64 -81h-72l104 127h64l105 -127h-73z" />
    <glyph glyph-name="tilde" unicode="&#x2dc;" horiz-adv-x="417" 
d="M273 611c-54 0 -101 39 -141 39c-24 0 -40 -20 -42 -44h-48c4 54 36 106 102 106c57 0 101 -39 141 -39c24 0 40 19 42 43h48c-5 -54 -37 -105 -102 -105z" />
    <glyph glyph-name="macron" unicode="&#xaf;" horiz-adv-x="391" 
d="M349 678v-60h-307v60h307z" />
    <glyph glyph-name="macron" unicode="&#x2c9;" horiz-adv-x="391" 
d="M349 678v-60h-307v60h307z" />
    <glyph glyph-name="breve" unicode="&#x2d8;" horiz-adv-x="388" 
d="M346 720c-5 -74 -64 -130 -152 -130s-147 56 -152 130h47c15 -45 50 -72 105 -72c68 0 98 27 109 72h43z" />
    <glyph glyph-name="dotaccent" unicode="&#x2d9;" horiz-adv-x="175" 
d="M133 594h-91v100h91v-100z" />
    <glyph glyph-name="dieresis" unicode="&#xa8;" horiz-adv-x="417" 
d="M334 608h-81v90h81v-90zM164 608h-81v90h81v-90z" />
    <glyph glyph-name="ring" unicode="&#x2da;" horiz-adv-x="275" 
d="M137 768c-53 0 -95 43 -95 95c0 53 42 96 95 96s96 -43 96 -96c0 -52 -43 -95 -96 -95zM188 863c0 29 -23 52 -51 52s-51 -23 -51 -52c0 -28 23 -51 51 -51s51 23 51 51z" />
    <glyph glyph-name="cedilla" unicode="&#xb8;" horiz-adv-x="252" 
d="M92 -99l-32 21l38 78h45l-44 -70l-1 7c43 26 112 7 112 -55c0 -45 -32 -70 -80 -70c-30 0 -67 15 -88 42l12 22c19 -18 47 -27 72 -27c23 0 42 11 42 31c0 18 -15 34 -40 34c-12 0 -25 -3 -36 -13z" />
    <glyph glyph-name="hungarumlaut" unicode="&#x2dd;" horiz-adv-x="416" 
d="M374 720l-103 -136h-67l66 136h104zM212 720l-103 -136h-67l66 136h104z" />
    <glyph glyph-name="ogonek" unicode="&#x2db;" horiz-adv-x="225" 
d="M183 -135v-35c-47 -31 -111 -27 -133 15c-21 40 -5 109 76 155h55c-70 -43 -98 -100 -83 -130c12 -23 53 -25 85 -5z" />
    <glyph glyph-name="caron" unicode="&#x2c7;" horiz-adv-x="366" 
d="M324 726l-104 -143h-74l-104 143h77l64 -91l64 91h77z" />
    <glyph glyph-name="emdash" unicode="&#x2014;" horiz-adv-x="976" 
d="M933 235h-889v82h889v-82z" />
    <glyph glyph-name="AE" unicode="&#xc6;" horiz-adv-x="964" 
d="M563 486v-100h309v-81h-309v-97c0 -81 44 -126 124 -126h225v-82h-225c-127 0 -208 77 -208 208v50h-321v-258h-85v466c0 138 104 245 245 245c86 0 156 -39 199 -100c33 54 92 83 171 83h224v-81h-225c-80 0 -124 -45 -124 -127zM479 340v126c0 90 -67 164 -161 164
c-91 0 -160 -74 -160 -164v-126h321z" />
    <glyph glyph-name="ordfeminine" unicode="&#xaa;" horiz-adv-x="406" 
d="M356 540v-160h-64v33c-25 -26 -59 -42 -100 -42c-88 0 -162 76 -162 169c0 94 71 170 163 170s163 -76 163 -170zM289 540c0 60 -43 108 -96 108s-97 -48 -97 -108c0 -59 44 -107 97 -107s96 48 96 107z" />
    <glyph glyph-name="Lslash" unicode="&#x141;" horiz-adv-x="564" 
d="M539 82v-82h-442v288l-87 -53v67l87 52v340h85v-289l168 102v-67l-168 -101v-257h357z" />
    <glyph glyph-name="Oslash" unicode="&#xd8;" horiz-adv-x="768" 
d="M728 350c0 -202 -154 -362 -344 -362c-88 0 -169 35 -230 92l-70 -70l-40 41l71 71c-47 62 -75 141 -75 228c0 202 154 361 344 361c90 0 170 -33 231 -90l68 69l41 -40l-71 -71c47 -61 75 -140 75 -229zM175 182l381 381c-46 42 -105 67 -172 67
c-143 0 -260 -123 -260 -280c0 -64 19 -122 51 -168zM644 350c0 65 -19 123 -51 169l-380 -381c45 -43 105 -68 171 -68c143 0 260 123 260 280z" />
    <glyph glyph-name="OE" unicode="&#x152;" horiz-adv-x="1157" 
d="M735 486v-99h326v-79h-326v-100c0 -81 44 -126 124 -126h246v-82h-246c-103 0 -177 51 -200 141c-59 -93 -158 -153 -274 -153c-190 0 -345 159 -345 362c0 202 155 362 345 362c119 0 217 -60 275 -153c26 87 98 135 199 135h246v-81h-246c-80 0 -124 -45 -124 -127z
M644 351c0 159 -114 279 -259 279c-143 0 -260 -123 -260 -280c0 -158 117 -280 260 -280s259 123 259 281z" />
    <glyph glyph-name="ordmasculine" unicode="&#xba;" horiz-adv-x="385" 
d="M193 710c90 0 162 -77 162 -170s-72 -169 -162 -169s-163 76 -163 169s73 170 163 170zM193 433c53 0 96 48 96 107s-43 108 -96 108s-97 -49 -97 -108s44 -107 97 -107z" />
    <glyph glyph-name="ae" unicode="&#xe6;" horiz-adv-x="1014" 
d="M978 160c-39 -112 -128 -172 -247 -172c-77 0 -140 31 -182 82v-70h-80v68c-44 -49 -109 -80 -176 -80c-144 0 -258 115 -258 269c0 155 116 271 259 271c97 0 175 -53 216 -133c43 80 123 133 215 133c113 0 221 -78 253 -212l-397 -167c33 -54 92 -84 150 -84
c73 0 125 34 157 95h90zM553 258c0 -13 0 -25 2 -37l319 135c-31 58 -85 95 -149 95c-81 0 -172 -73 -172 -193zM468 257c0 107 -80 193 -174 193c-96 0 -174 -85 -174 -193s78 -191 174 -191c95 0 174 85 174 191z" />
    <glyph glyph-name="dotlessi" unicode="&#x131;" horiz-adv-x="223" 
d="M154 515v-515h-85v515h85z" />
    <glyph glyph-name="lslash" unicode="&#x142;" horiz-adv-x="521" 
d="M501 82v-82h-200c-126 0 -208 77 -208 208v78l-83 -51v67l83 51v341h85v-291l171 104v-67l-171 -103v-129c0 -82 43 -126 123 -126h200z" />
    <glyph glyph-name="oslash" unicode="&#xf8;" horiz-adv-x="589" 
d="M553 256c0 -148 -112 -269 -259 -269c-66 0 -124 25 -169 65l-43 -43l-41 41l46 45c-33 45 -52 101 -52 161c0 150 113 272 259 272c64 0 121 -23 165 -61l48 48l41 -40l-50 -50c35 -46 55 -105 55 -169zM148 156l252 252c-30 24 -66 39 -106 39
c-95 0 -173 -86 -173 -191c0 -36 10 -71 27 -100zM468 256c0 41 -12 78 -31 109l-253 -253c30 -27 69 -43 110 -43c96 0 174 84 174 187z" />
    <glyph glyph-name="oe" unicode="&#x153;" horiz-adv-x="1014" 
d="M978 160c-39 -112 -128 -172 -247 -172c-98 0 -178 53 -221 132c-41 -79 -117 -132 -216 -132c-146 0 -259 120 -259 269s113 271 259 271c99 0 175 -54 216 -134c43 80 121 134 216 134c112 0 220 -78 252 -212l-397 -167c34 -54 92 -84 150 -84c73 0 127 34 157 95h90z
M553 258c0 -13 0 -25 2 -37l320 135c-32 58 -86 95 -149 95c-82 0 -173 -73 -173 -193zM468 257c0 106 -78 193 -174 193s-174 -87 -174 -193s78 -191 174 -191s174 85 174 191z" />
    <glyph glyph-name="germandbls" unicode="&#xdf;" horiz-adv-x="601" 
d="M562 212c0 -134 -96 -224 -239 -224c-33 0 -67 5 -98 14v83c27 -10 65 -17 98 -17c92 0 155 52 155 142c0 105 -85 142 -163 144h-87v81h62c88 0 137 53 137 113c0 82 -67 118 -136 118c-68 0 -138 -39 -138 -153v-513h-84v513c0 142 91 231 222 231
c130 0 221 -81 221 -196c0 -65 -32 -114 -84 -143c84 -30 134 -97 134 -193z" />
    <glyph glyph-name="onesuperior" unicode="&#xb9;" horiz-adv-x="219" 
d="M132 694v-436h-67v376h-50v60h117z" />
    <glyph glyph-name="logicalnot" unicode="&#xac;" 
d="M150 383v-104h-100v104h100z" />
    <glyph glyph-name="mu" unicode="&#xb5;" 
d="M150 383v-104h-100v104h100z" />
    <glyph glyph-name="mu" unicode="&#x3bc;" 
d="M150 383v-104h-100v104h100z" />
    <glyph glyph-name="trademark" unicode="&#x2122;" horiz-adv-x="897" 
d="M835 694v-436h-69v315l-116 -315h-70l-115 315v-315h-70v436h93l127 -351l128 351h92zM33 694h317v-65h-123v-371h-69v371h-125v65z" />
    <glyph glyph-name="Eth" unicode="&#xd0;" horiz-adv-x="692" 
d="M653 348c0 -215 -123 -348 -314 -348h-258v346h-64v82h64v266h258c191 0 314 -131 314 -346zM566 348c0 190 -101 265 -227 265h-173v-185h207v-82h-207v-264h173c127 0 227 79 227 266z" />
    <glyph glyph-name="onehalf" unicode="&#xbd;" horiz-adv-x="718" 
d="M65 634h-50v60h117v-436h-67v376zM510 694l-407 -706h-63l408 706h62zM528 64h148v-64h-289l169 190c53 60 61 84 61 120c0 30 -19 78 -77 78c-59 0 -82 -48 -82 -95h-66c0 93 62 156 147 156c94 0 144 -71 144 -139c0 -63 -26 -104 -80 -164z" />
    <glyph glyph-name="Thorn" unicode="&#xde;" horiz-adv-x="622" 
d="M596 387c0 -123 -81 -210 -223 -210h-208v-177h-84v694h84v-97h208c142 0 223 -87 223 -210zM511 387c0 91 -57 128 -138 128h-208v-257h208c81 0 138 37 138 129z" />
    <glyph glyph-name="onequarter" unicode="&#xbc;" horiz-adv-x="642" 
d="M65 634h-50v60h117v-436h-67v376zM510 694l-407 -706h-62l407 706h62zM615 95h-36v-95h-66v95h-200v65l199 276h67v-278h36v-63zM513 158v177l-128 -177h128z" />
    <glyph glyph-name="divide" unicode="&#xf7;" 
d="M150 383v-104h-100v104h100z" />
    <glyph glyph-name="degree" unicode="&#xb0;" horiz-adv-x="378" 
d="M189 694c84 0 154 -69 154 -153c0 -85 -70 -154 -154 -154c-85 0 -154 69 -154 154c0 84 69 153 154 153zM189 443c54 0 97 43 97 98c0 54 -43 98 -97 98s-97 -44 -97 -98c0 -55 43 -98 97 -98z" />
    <glyph glyph-name="thorn" unicode="&#xfe;" horiz-adv-x="626" 
d="M590 259c0 -150 -110 -271 -257 -271c-75 0 -139 40 -176 90v-307h-84v923h84v-257c37 50 101 91 176 91c147 0 257 -121 257 -269zM505 259c0 105 -76 191 -172 191s-176 -86 -176 -191c0 -106 80 -193 176 -193s172 87 172 193z" />
    <glyph glyph-name="threequarters" unicode="&#xbe;" horiz-adv-x="809" 
d="M178 252c-89 0 -153 53 -163 131h66c10 -45 48 -72 97 -72c55 0 93 44 93 99c0 69 -46 105 -151 95l86 126h-163v63h285l-99 -140c69 -18 108 -71 108 -144c0 -92 -67 -158 -159 -158zM677 694l-408 -706h-62l408 706h62zM782 95h-36v-95h-66v95h-201v65l200 276h67v-278
h36v-63zM680 158v177l-128 -177h128z" />
    <glyph glyph-name="twosuperior" unicode="&#xb2;" horiz-adv-x="344" 
d="M154 321h148v-63h-289l169 190c53 60 61 84 61 120c0 30 -19 77 -77 77c-59 0 -82 -47 -82 -95h-66c0 94 62 157 147 157c94 0 144 -72 144 -139c0 -63 -26 -104 -80 -165z" />
    <glyph glyph-name="registered" unicode="&#xae;" horiz-adv-x="800" 
d="M762 350c0 -200 -162 -362 -362 -362s-362 162 -362 362c0 199 162 361 362 361s362 -162 362 -361zM690 350c0 162 -130 294 -290 294s-290 -132 -290 -294c0 -163 130 -295 290 -295s290 132 290 295zM498 307l85 -148h-86l-72 139h-97v-138h-75v398h191
c84 0 137 -51 137 -130c0 -57 -33 -103 -83 -121zM328 367h117c31 0 62 16 62 61s-24 61 -62 61h-117v-122z" />
    <glyph glyph-name="eth" unicode="&#xf0;" horiz-adv-x="583" 
d="M291 -17c-145 0 -255 119 -255 265s110 266 255 266c42 0 77 -11 108 -31c-30 46 -67 89 -108 125l-67 -49l-46 29l74 53c-27 21 -54 39 -82 54l69 51c26 -16 52 -36 78 -57l57 43l47 -28l-67 -49c107 -103 191 -247 191 -407c0 -146 -110 -265 -254 -265zM461 248
c0 104 -76 189 -170 189s-171 -85 -171 -189s77 -188 171 -188s170 84 170 188z" />
    <glyph glyph-name="multiply" unicode="&#xd7;" horiz-adv-x="511" 
d="M439 12l-183 183l-183 -183l-58 58l183 183l-183 182l58 58l183 -183l183 183l57 -58l-182 -182l182 -183z" />
    <glyph glyph-name="threesuperior" unicode="&#xb3;" horiz-adv-x="370" 
d="M337 410c0 -92 -67 -158 -159 -158c-89 0 -153 53 -163 131h67c10 -45 48 -72 96 -72c56 0 94 44 94 99c0 69 -47 105 -152 95l87 126h-163v63h284l-98 -140c69 -18 107 -71 107 -144z" />
    <glyph glyph-name="copyright" unicode="&#xa9;" horiz-adv-x="800" 
d="M400 711c200 0 362 -162 362 -361c0 -200 -162 -362 -362 -362s-362 162 -362 362c0 199 162 361 362 361zM400 55c160 0 290 132 290 295c0 162 -130 294 -290 294s-290 -132 -290 -294c0 -163 130 -295 290 -295zM595 282c-27 -86 -104 -148 -195 -148
c-113 0 -206 97 -206 216c0 118 93 215 206 215c93 0 170 -61 196 -147h-78c-21 46 -65 76 -118 76c-75 0 -132 -65 -132 -144c0 -80 57 -145 132 -145c52 0 96 31 118 77h77z" />
    <glyph glyph-name="Aacute" unicode="&#xc1;" horiz-adv-x="636" 
d="M481 902l-125 -137h-66l87 137h104zM563 466v-466h-85v258h-320v-258h-85v466c0 138 104 245 245 245c142 0 245 -107 245 -245zM478 340v126c0 90 -66 164 -160 164c-91 0 -160 -74 -160 -164v-126h320z" />
    <glyph glyph-name="Acircumflex" unicode="&#xc2;" horiz-adv-x="636" 
d="M382 764l-64 91l-64 -91h-77l104 142h74l104 -142h-77zM563 466v-466h-85v258h-320v-258h-85v466c0 138 104 245 245 245c142 0 245 -107 245 -245zM478 340v126c0 90 -66 164 -160 164c-91 0 -160 -74 -160 -164v-126h320z" />
    <glyph glyph-name="Adieresis" unicode="&#xc4;" horiz-adv-x="636" 
d="M447 774h-92v100h92v-100zM278 774h-92v100h92v-100zM563 466v-466h-85v258h-320v-258h-85v466c0 138 104 245 245 245c142 0 245 -107 245 -245zM478 340v126c0 90 -66 164 -160 164c-91 0 -160 -74 -160 -164v-126h320z" />
    <glyph glyph-name="Agrave" unicode="&#xc0;" horiz-adv-x="636" 
d="M159 902h104l87 -137h-67zM563 466v-466h-85v258h-320v-258h-85v466c0 138 104 245 245 245c142 0 245 -107 245 -245zM478 340v126c0 90 -66 164 -160 164c-91 0 -160 -74 -160 -164v-126h320z" />
    <glyph glyph-name="Aring" unicode="&#xc5;" horiz-adv-x="636" 
d="M317 768c-53 0 -96 43 -96 95c0 53 43 96 96 96c52 0 95 -43 95 -96c0 -52 -43 -95 -95 -95zM563 466v-466h-85v258h-320v-258h-85v466c0 138 104 245 245 245c142 0 245 -107 245 -245zM368 863c0 29 -23 52 -51 52c-29 0 -52 -23 -52 -52c0 -28 23 -51 52 -51
c28 0 51 23 51 51zM478 340v126c0 90 -66 164 -160 164c-91 0 -160 -74 -160 -164v-126h320z" />
    <glyph glyph-name="Atilde" unicode="&#xc3;" horiz-adv-x="636" 
d="M373 778c-54 0 -101 38 -141 38c-24 0 -40 -19 -42 -43h-48c4 54 36 105 102 105c57 0 101 -39 141 -39c24 0 40 20 42 44h48c-5 -54 -37 -105 -102 -105zM563 466v-466h-85v258h-320v-258h-85v466c0 138 104 245 245 245c142 0 245 -107 245 -245zM478 340v126
c0 90 -66 164 -160 164c-91 0 -160 -74 -160 -164v-126h320z" />
    <glyph glyph-name="Ccedilla" unicode="&#xc7;" horiz-adv-x="727" 
d="M384 -12l-29 -47c43 20 105 0 105 -59c0 -45 -33 -70 -81 -70c-30 0 -66 15 -88 42l12 22c20 -18 47 -27 72 -27c23 0 42 11 42 31c0 18 -15 34 -40 34c-12 0 -25 -3 -36 -13l-32 21l34 68c-171 22 -303 175 -303 360c0 199 154 361 344 361c158 0 274 -94 318 -231h-89
c-38 87 -116 150 -229 150c-143 0 -260 -127 -260 -280s117 -280 260 -280c102 0 187 58 229 150h89c-47 -141 -169 -232 -318 -232z" />
    <glyph glyph-name="Eacute" unicode="&#xc9;" horiz-adv-x="571" 
d="M471 902l-125 -137h-66l87 137h104zM150 486v-99h325v-79h-325v-100c0 -81 43 -126 123 -126h246v-82h-246c-126 0 -208 77 -208 208v278c0 132 82 208 208 208h246v-81h-246c-80 0 -123 -45 -123 -127z" />
    <glyph glyph-name="Ecircumflex" unicode="&#xca;" horiz-adv-x="571" 
d="M368 764l-64 91l-64 -91h-77l104 142h74l104 -142h-77zM150 486v-99h325v-79h-325v-100c0 -81 43 -126 123 -126h246v-82h-246c-126 0 -208 77 -208 208v278c0 132 82 208 208 208h246v-81h-246c-80 0 -123 -45 -123 -127z" />
    <glyph glyph-name="Edieresis" unicode="&#xcb;" horiz-adv-x="571" 
d="M438 774h-92v100h92v-100zM269 774h-92v100h92v-100zM150 486v-99h325v-79h-325v-100c0 -81 43 -126 123 -126h246v-82h-246c-126 0 -208 77 -208 208v278c0 132 82 208 208 208h246v-81h-246c-80 0 -123 -45 -123 -127z" />
    <glyph glyph-name="Egrave" unicode="&#xc8;" horiz-adv-x="571" 
d="M168 902h104l87 -137h-66zM150 486v-99h325v-79h-325v-100c0 -81 43 -126 123 -126h246v-82h-246c-126 0 -208 77 -208 208v278c0 132 82 208 208 208h246v-81h-246c-80 0 -123 -45 -123 -127z" />
    <glyph glyph-name="Iacute" unicode="&#xcd;" horiz-adv-x="255" 
d="M285 902l-125 -137h-67l87 137h105zM170 694v-694h-85v694h85z" />
    <glyph glyph-name="Icircumflex" unicode="&#xce;" horiz-adv-x="255" 
d="M192 764l-64 91l-65 -91h-77l104 142h74l105 -142h-77zM170 694v-694h-85v694h85z" />
    <glyph glyph-name="Idieresis" unicode="&#xcf;" horiz-adv-x="255" 
d="M258 774h-92v100h92v-100zM89 774h-92v100h92v-100zM170 694v-694h-85v694h85z" />
    <glyph glyph-name="Igrave" unicode="&#xcc;" horiz-adv-x="255" 
d="M-36 902h104l87 -137h-67zM170 694v-694h-85v694h85z" />
    <glyph glyph-name="Ntilde" unicode="&#xd1;" horiz-adv-x="636" 
d="M381 778c-53 0 -101 38 -141 38c-24 0 -40 -19 -42 -43h-48c5 54 37 105 102 105c57 0 101 -39 141 -39c25 0 40 20 42 44h48c-4 -54 -36 -105 -102 -105zM318 711c138 0 245 -105 245 -243v-468h-85v468c0 92 -72 162 -160 162s-160 -70 -160 -162v-468h-85v468
c0 138 107 243 245 243z" />
    <glyph glyph-name="Oacute" unicode="&#xd3;" horiz-adv-x="768" 
d="M548 902l-125 -137h-66l87 137h104zM384 711c193 0 344 -155 344 -361c0 -202 -154 -362 -344 -362s-344 159 -344 362c0 202 154 361 344 361zM384 70c143 0 260 123 260 280c0 160 -114 280 -260 280c-143 0 -260 -123 -260 -280c0 -158 117 -280 260 -280z" />
    <glyph glyph-name="Ocircumflex" unicode="&#xd4;" horiz-adv-x="768" 
d="M448 764l-64 91l-64 -91h-77l104 142h73l105 -142h-77zM384 711c193 0 344 -155 344 -361c0 -202 -154 -362 -344 -362s-344 159 -344 362c0 202 154 361 344 361zM384 70c143 0 260 123 260 280c0 160 -114 280 -260 280c-143 0 -260 -123 -260 -280
c0 -158 117 -280 260 -280z" />
    <glyph glyph-name="Odieresis" unicode="&#xd6;" horiz-adv-x="768" 
d="M514 774h-91v100h91v-100zM345 774h-91v100h91v-100zM384 711c193 0 344 -155 344 -361c0 -202 -154 -362 -344 -362s-344 159 -344 362c0 202 154 361 344 361zM384 70c143 0 260 123 260 280c0 160 -114 280 -260 280c-143 0 -260 -123 -260 -280
c0 -158 117 -280 260 -280z" />
    <glyph glyph-name="Ograve" unicode="&#xd2;" horiz-adv-x="768" 
d="M223 902h104l88 -137h-67zM384 711c193 0 344 -155 344 -361c0 -202 -154 -362 -344 -362s-344 159 -344 362c0 202 154 361 344 361zM384 70c143 0 260 123 260 280c0 160 -114 280 -260 280c-143 0 -260 -123 -260 -280c0 -158 117 -280 260 -280z" />
    <glyph glyph-name="Otilde" unicode="&#xd5;" horiz-adv-x="768" 
d="M438 778c-54 0 -101 38 -141 38c-24 0 -40 -19 -42 -43h-48c4 54 36 105 102 105c57 0 101 -39 141 -39c24 0 40 20 42 44h48c-5 -54 -37 -105 -102 -105zM384 711c193 0 344 -155 344 -361c0 -202 -154 -362 -344 -362s-344 159 -344 362c0 202 154 361 344 361zM384 70
c143 0 260 123 260 280c0 160 -114 280 -260 280c-143 0 -260 -123 -260 -280c0 -158 117 -280 260 -280z" />
    <glyph glyph-name="Scaron" unicode="&#x160;" horiz-adv-x="598" 
d="M438 918l-104 -143h-74l-104 143h77l64 -91l64 91h77zM560 197c0 -136 -107 -209 -262 -209c-160 0 -265 93 -265 232h88c0 -93 72 -151 177 -151c119 0 177 50 177 128c0 58 -26 98 -179 124c-154 27 -242 75 -242 194s95 196 242 196c152 0 246 -82 246 -216h-86
c0 81 -55 135 -159 135c-107 0 -157 -47 -157 -112c0 -60 32 -90 174 -116c152 -29 246 -72 246 -205z" />
    <glyph glyph-name="Uacute" unicode="&#xda;" horiz-adv-x="670" 
d="M486 902l-125 -137h-66l87 137h104zM153 249c0 -103 66 -179 182 -179c117 0 181 76 181 179v445h85v-445c0 -154 -108 -261 -266 -261c-159 0 -266 107 -266 261v445h84v-445z" />
    <glyph glyph-name="Ucircumflex" unicode="&#xdb;" horiz-adv-x="670" 
d="M402 764l-64 91l-64 -91h-77l104 142h74l104 -142h-77zM153 249c0 -103 66 -179 182 -179c117 0 181 76 181 179v445h85v-445c0 -154 -108 -261 -266 -261c-159 0 -266 107 -266 261v445h84v-445z" />
    <glyph glyph-name="Udieresis" unicode="&#xdc;" horiz-adv-x="670" 
d="M465 774h-91v100h91v-100zM297 774h-92v100h92v-100zM153 249c0 -103 66 -179 182 -179c117 0 181 76 181 179v445h85v-445c0 -154 -108 -261 -266 -261c-159 0 -266 107 -266 261v445h84v-445z" />
    <glyph glyph-name="Ugrave" unicode="&#xd9;" horiz-adv-x="670" 
d="M185 902h104l87 -137h-66zM153 249c0 -103 66 -179 182 -179c117 0 181 76 181 179v445h85v-445c0 -154 -108 -261 -266 -261c-159 0 -266 107 -266 261v445h84v-445z" />
    <glyph glyph-name="Yacute" unicode="&#xdd;" horiz-adv-x="587" 
d="M449 884l-125 -137h-67l87 137h105zM535 694v-191c0 -123 -80 -223 -198 -242v-261h-85v260c-119 19 -200 119 -200 243v191h84v-191c0 -90 63 -164 158 -164c97 0 156 74 156 164v191h85z" />
    <glyph glyph-name="Ydieresis" unicode="&#x178;" horiz-adv-x="587" 
d="M423 774h-91v100h91v-100zM255 774h-92v100h92v-100zM535 694v-191c0 -123 -80 -223 -198 -242v-261h-85v260c-119 19 -200 119 -200 243v191h84v-191c0 -90 63 -164 158 -164c97 0 156 74 156 164v191h85z" />
    <glyph glyph-name="Zcaron" unicode="&#x17d;" horiz-adv-x="530" 
d="M412 918l-104 -143h-74l-104 143h77l64 -91l64 91h77zM503 82v-82h-476v78l361 535h-348v81h452v-77l-361 -535h372z" />
    <glyph glyph-name="aacute" unicode="&#xe1;" horiz-adv-x="608" 
d="M398 720l-125 -136h-66l87 136h104zM552 257v-257h-82v80c-40 -56 -105 -93 -178 -93c-142 0 -257 116 -257 270c0 155 116 271 259 271c146 0 258 -119 258 -271zM468 257c0 107 -80 193 -174 193c-96 0 -174 -85 -174 -193s78 -191 174 -191c95 0 174 85 174 191z" />
    <glyph glyph-name="acircumflex" unicode="&#xe2;" horiz-adv-x="608" 
d="M345 583l-64 91l-65 -91h-76l104 143h74l104 -143h-77zM552 257v-257h-82v80c-40 -56 -105 -93 -178 -93c-142 0 -257 116 -257 270c0 155 116 271 259 271c146 0 258 -119 258 -271zM468 257c0 107 -80 193 -174 193c-96 0 -174 -85 -174 -193s78 -191 174 -191
c95 0 174 85 174 191z" />
    <glyph glyph-name="adieresis" unicode="&#xe4;" horiz-adv-x="608" 
d="M414 594h-92v99h92v-99zM245 594h-92v99h92v-99zM552 257v-257h-82v80c-40 -56 -105 -93 -178 -93c-142 0 -257 116 -257 270c0 155 116 271 259 271c146 0 258 -119 258 -271zM468 257c0 107 -80 193 -174 193c-96 0 -174 -85 -174 -193s78 -191 174 -191
c95 0 174 85 174 191z" />
    <glyph glyph-name="agrave" unicode="&#xe0;" horiz-adv-x="608" 
d="M155 721h104l88 -137h-67zM552 257v-257h-82v80c-40 -56 -105 -93 -178 -93c-142 0 -257 116 -257 270c0 155 116 271 259 271c146 0 258 -119 258 -271zM468 257c0 107 -80 193 -174 193c-96 0 -174 -85 -174 -193s78 -191 174 -191c95 0 174 85 174 191z" />
    <glyph glyph-name="aring" unicode="&#xe5;" horiz-adv-x="608" 
d="M281 595c-52 0 -95 43 -95 95c0 53 43 95 95 95c53 0 96 -42 96 -95c0 -52 -43 -95 -96 -95zM552 257v-257h-82v80c-40 -56 -105 -93 -178 -93c-142 0 -257 116 -257 270c0 155 116 271 259 271c146 0 258 -119 258 -271zM333 690c0 28 -23 51 -52 51
c-28 0 -51 -23 -51 -51s23 -51 51 -51c29 0 52 23 52 51zM468 257c0 107 -80 193 -174 193c-96 0 -174 -85 -174 -193s78 -191 174 -191c95 0 174 85 174 191z" />
    <glyph glyph-name="atilde" unicode="&#xe3;" horiz-adv-x="608" 
d="M343 597c-53 0 -100 38 -141 38c-24 0 -39 -19 -42 -43h-47c4 54 36 106 101 106c57 0 101 -39 142 -39c24 0 39 19 42 43h47c-4 -54 -36 -105 -102 -105zM552 257v-257h-82v80c-40 -56 -105 -93 -178 -93c-142 0 -257 116 -257 270c0 155 116 271 259 271
c146 0 258 -119 258 -271zM468 257c0 107 -80 193 -174 193c-96 0 -174 -85 -174 -193s78 -191 174 -191c95 0 174 85 174 191z" />
    <glyph glyph-name="ccedilla" unicode="&#xe7;" horiz-adv-x="563" 
d="M307 -12l-29 -47c43 20 105 0 105 -59c0 -45 -33 -70 -80 -70c-31 0 -68 15 -89 42l12 22c20 -18 47 -27 72 -27c23 0 42 11 42 31c0 18 -15 34 -40 34c-12 0 -25 -3 -36 -13l-32 21l33 68c-129 14 -230 128 -230 267c0 149 116 271 258 271c115 0 205 -68 240 -172h-91
c-29 56 -82 91 -149 91c-95 0 -173 -86 -173 -190s78 -188 173 -188c68 0 121 35 149 91h91c-33 -100 -118 -167 -226 -172z" />
    <glyph glyph-name="eacute" unicode="&#xe9;" horiz-adv-x="581" 
d="M428 720l-125 -136h-66l87 136h104zM456 160h88c-40 -110 -126 -172 -245 -172c-148 0 -264 118 -264 269c0 149 116 271 259 271c112 0 221 -78 251 -212l-395 -167c33 -52 90 -81 149 -81c73 0 124 32 157 92zM120 258c0 -13 1 -24 3 -35l318 134
c-32 56 -89 91 -147 91c-82 0 -174 -72 -174 -190z" />
    <glyph glyph-name="ecircumflex" unicode="&#xea;" horiz-adv-x="581" 
d="M347 583l-64 91l-65 -91h-76l104 143h74l104 -143h-77zM456 160h88c-40 -110 -126 -172 -245 -172c-148 0 -264 118 -264 269c0 149 116 271 259 271c112 0 221 -78 251 -212l-395 -167c33 -52 90 -81 149 -81c73 0 124 32 157 92zM120 258c0 -13 1 -24 3 -35l318 134
c-32 56 -89 91 -147 91c-82 0 -174 -72 -174 -190z" />
    <glyph glyph-name="edieresis" unicode="&#xeb;" horiz-adv-x="581" 
d="M416 594h-91v99h91v-99zM248 594h-92v99h92v-99zM456 160h88c-40 -110 -126 -172 -245 -172c-148 0 -264 118 -264 269c0 149 116 271 259 271c112 0 221 -78 251 -212l-395 -167c33 -52 90 -81 149 -81c73 0 124 32 157 92zM120 258c0 -13 1 -24 3 -35l318 134
c-32 56 -89 91 -147 91c-82 0 -174 -72 -174 -190z" />
    <glyph glyph-name="egrave" unicode="&#xe8;" horiz-adv-x="581" 
d="M155 721h104l88 -137h-67zM456 160h88c-40 -110 -126 -172 -245 -172c-148 0 -264 118 -264 269c0 149 116 271 259 271c112 0 221 -78 251 -212l-395 -167c33 -52 90 -81 149 -81c73 0 124 32 157 92zM120 258c0 -13 1 -24 3 -35l318 134c-32 56 -89 91 -147 91
c-82 0 -174 -72 -174 -190z" />
    <glyph glyph-name="iacute" unicode="&#xed;" horiz-adv-x="233" 
d="M276 720l-125 -136h-66l87 136h104zM154 515v-515h-85v515h85z" />
    <glyph glyph-name="icircumflex" unicode="&#xee;" horiz-adv-x="233" 
d="M178 583l-63 91l-65 -91h-77l105 143h73l104 -143h-77zM154 515v-515h-85v515h85z" />
    <glyph glyph-name="idieresis" unicode="&#xef;" horiz-adv-x="233" 
d="M247 594h-92v99h92v-99zM78 594h-92v99h92v-99zM154 515v-515h-85v515h85z" />
    <glyph glyph-name="igrave" unicode="&#xec;" horiz-adv-x="233" 
d="M-47 721h104l87 -137h-66zM154 515v-515h-85v515h85z" />
    <glyph glyph-name="ntilde" unicode="&#xf1;" horiz-adv-x="562" 
d="M346 597c-53 0 -101 38 -141 38c-24 0 -40 -19 -42 -43h-48c4 54 37 106 102 106c57 0 101 -39 142 -39c24 0 39 19 42 43h47c-4 -54 -36 -105 -102 -105zM150 316v-316h-84v313c0 130 92 215 215 215s215 -85 215 -215v-313h-85v316c0 77 -51 133 -130 133
c-80 0 -131 -56 -131 -133z" />
    <glyph glyph-name="oacute" unicode="&#xf3;" horiz-adv-x="589" 
d="M458 720l-125 -136h-66l87 136h104zM294 528c147 0 259 -122 259 -272c0 -148 -112 -269 -259 -269c-146 0 -259 121 -259 269c0 150 113 272 259 272zM294 69c96 0 174 84 174 187c0 105 -78 191 -174 191c-95 0 -173 -86 -173 -191c0 -103 78 -187 173 -187z" />
    <glyph glyph-name="ocircumflex" unicode="&#xf4;" horiz-adv-x="589" 
d="M357 583l-64 91l-65 -91h-76l104 143h74l104 -143h-77zM294 528c147 0 259 -122 259 -272c0 -148 -112 -269 -259 -269c-146 0 -259 121 -259 269c0 150 113 272 259 272zM294 69c96 0 174 84 174 187c0 105 -78 191 -174 191c-95 0 -173 -86 -173 -191
c0 -103 78 -187 173 -187z" />
    <glyph glyph-name="odieresis" unicode="&#xf6;" horiz-adv-x="589" 
d="M425 594h-92v99h92v-99zM256 594h-92v99h92v-99zM294 528c147 0 259 -122 259 -272c0 -148 -112 -269 -259 -269c-146 0 -259 121 -259 269c0 150 113 272 259 272zM294 69c96 0 174 84 174 187c0 105 -78 191 -174 191c-95 0 -173 -86 -173 -191
c0 -103 78 -187 173 -187z" />
    <glyph glyph-name="ograve" unicode="&#xf2;" horiz-adv-x="589" 
d="M128 721h104l87 -137h-66zM294 528c147 0 259 -122 259 -272c0 -148 -112 -269 -259 -269c-146 0 -259 121 -259 269c0 150 113 272 259 272zM294 69c96 0 174 84 174 187c0 105 -78 191 -174 191c-95 0 -173 -86 -173 -191c0 -103 78 -187 173 -187z" />
    <glyph glyph-name="otilde" unicode="&#xf5;" horiz-adv-x="589" 
d="M347 597c-54 0 -101 38 -142 38c-24 0 -39 -19 -42 -43h-47c4 54 36 106 102 106c57 0 100 -39 141 -39c24 0 39 19 42 43h48c-4 -54 -37 -105 -102 -105zM294 528c147 0 259 -122 259 -272c0 -148 -112 -269 -259 -269c-146 0 -259 121 -259 269c0 150 113 272 259 272z
M294 69c96 0 174 84 174 187c0 105 -78 191 -174 191c-95 0 -173 -86 -173 -191c0 -103 78 -187 173 -187z" />
    <glyph glyph-name="scaron" unicode="&#x161;" horiz-adv-x="503" 
d="M401 726l-104 -143h-74l-104 143h77l64 -91l64 91h77zM472 155c0 -103 -88 -168 -211 -168c-125 0 -216 67 -230 176h86c11 -60 70 -97 144 -97c80 0 129 39 129 84c0 36 -14 63 -140 80c-125 18 -201 48 -201 145c0 74 64 153 202 153c119 0 199 -60 210 -161h-86
c-12 55 -61 83 -124 83c-68 0 -117 -32 -117 -72c0 -37 29 -50 130 -66c114 -18 208 -40 208 -157z" />
    <glyph glyph-name="uacute" unicode="&#xfa;" horiz-adv-x="563" 
d="M439 720l-125 -136h-66l87 136h104zM412 203v312h85v-312c0 -130 -94 -215 -215 -215s-215 85 -215 215v312h84v-312c0 -77 51 -133 131 -133c79 0 130 56 130 133z" />
    <glyph glyph-name="ucircumflex" unicode="&#xfb;" horiz-adv-x="563" 
d="M346 583l-64 91l-64 -91h-77l104 143h74l104 -143h-77zM412 203v312h85v-312c0 -130 -94 -215 -215 -215s-215 85 -215 215v312h84v-312c0 -77 51 -133 131 -133c79 0 130 56 130 133z" />
    <glyph glyph-name="udieresis" unicode="&#xfc;" horiz-adv-x="563" 
d="M413 594h-92v99h92v-99zM244 594h-91v99h91v-99zM412 203v312h85v-312c0 -130 -94 -215 -215 -215s-215 85 -215 215v312h84v-312c0 -77 51 -133 131 -133c79 0 130 56 130 133z" />
    <glyph glyph-name="ugrave" unicode="&#xf9;" horiz-adv-x="563" 
d="M124 721h104l87 -137h-66zM412 203v312h85v-312c0 -130 -94 -215 -215 -215s-215 85 -215 215v312h84v-312c0 -77 51 -133 131 -133c79 0 130 56 130 133z" />
    <glyph glyph-name="yacute" unicode="&#xfd;" horiz-adv-x="566" 
d="M415 705l-125 -136h-66l87 136h104zM412 515h85v-553c0 -135 -94 -215 -215 -215c-108 0 -192 64 -212 170h86c18 -55 60 -88 126 -88c79 0 130 54 130 133v77c-31 -33 -74 -51 -130 -51c-121 0 -215 85 -215 215v312h84v-312c0 -77 51 -133 131 -133
c79 0 130 56 130 133v312z" />
    <glyph glyph-name="ydieresis" unicode="&#xff;" horiz-adv-x="566" 
d="M411 594h-91v99h91v-99zM243 594h-92v99h92v-99zM412 515h85v-553c0 -135 -94 -215 -215 -215c-108 0 -192 64 -212 170h86c18 -55 60 -88 126 -88c79 0 130 54 130 133v77c-31 -33 -74 -51 -130 -51c-121 0 -215 85 -215 215v312h84v-312c0 -77 51 -133 131 -133
c79 0 130 56 130 133v312z" />
    <glyph glyph-name="zcaron" unicode="&#x17e;" horiz-adv-x="470" 
d="M389 726l-104 -143h-74l-104 143h77l64 -91l64 91h77zM443 82v-82h-416v71l296 363h-288v81h399v-77l-293 -356h302z" />
    <glyph glyph-name="Delta" unicode="&#x394;" 
d="M150 383v-104h-100v104h100z" />
    <glyph glyph-name="Delta" unicode="&#x2206;" 
d="M150 383v-104h-100v104h100z" />
    <glyph glyph-name="Omega" unicode="&#x3a9;" 
d="M150 383v-104h-100v104h100z" />
    <glyph glyph-name="Omega" unicode="&#x2126;" 
d="M150 383v-104h-100v104h100z" />
    <glyph glyph-name="pi" unicode="&#x3c0;" 
d="M150 383v-104h-100v104h100z" />
    <glyph glyph-name="partialdiff" unicode="&#x2202;" 
d="M150 383v-104h-100v104h100z" />
    <glyph glyph-name="product" unicode="&#x220f;" 
d="M150 383v-104h-100v104h100z" />
    <glyph glyph-name="summation" unicode="&#x2211;" 
d="M150 383v-104h-100v104h100z" />
    <glyph glyph-name="radical" unicode="&#x221a;" 
d="M150 383v-104h-100v104h100z" />
    <glyph glyph-name="integral" unicode="&#x222b;" 
d="M150 383v-104h-100v104h100z" />
    <glyph glyph-name="approxequal" unicode="&#x2248;" 
d="M150 383v-104h-100v104h100z" />
    <glyph glyph-name="lessequal" unicode="&#x2264;" 
d="M150 383v-104h-100v104h100z" />
    <glyph glyph-name="greaterequal" unicode="&#x2265;" 
d="M150 383v-104h-100v104h100z" />
    <glyph glyph-name="lozenge" unicode="&#x25ca;" 
d="M150 383v-104h-100v104h100z" />
    <glyph glyph-name="uni00A0" unicode="&#xa0;" horiz-adv-x="289" 
 />
    <glyph glyph-name="r.alt" unicode="&#xe001;" horiz-adv-x="529" 
d="M150 316v-316h-84v313c0 130 92 215 215 215s215 -85 215 -215v-38h-85v41c0 77 -51 133 -130 133c-80 0 -131 -56 -131 -133z" />
    <glyph glyph-name="apple" unicode="&#xe000;" horiz-adv-x="904" 
d="M863 347c0 -210 -174 -341 -343 -346l-12 -1v682v13l12 -1c169 -5 343 -136 343 -347zM387 694h92v-125h-92c-131 0 -214 -101 -214 -222s83 -222 214 -222h92v-125h-92c-210 0 -346 161 -346 347s136 347 346 347zM573 664c40 -32 77 -84 102 -149c31 11 59 25 86 42
c-50 56 -117 93 -188 107zM532 488c43 3 84 9 121 20c-29 75 -75 130 -121 156v-176zM683 492c12 -40 20 -85 21 -133h135c-2 71 -26 131 -63 180c-29 -19 -60 -35 -93 -47zM532 359h149c-1 46 -9 88 -21 126c-39 -11 -82 -18 -128 -20v-106zM532 230c46 -2 89 -9 128 -21
c12 38 20 81 21 127h-149v-106zM839 336h-135c-1 -49 -9 -93 -21 -134c33 -11 64 -27 93 -46c37 48 61 109 63 180zM532 31c46 25 92 81 121 156c-37 11 -78 17 -121 19v-175zM761 138c-27 17 -55 31 -86 42c-25 -65 -62 -117 -102 -149c71 14 138 51 188 107z" />
    </font>
</defs>
</svg>
